# xmcd
#
# Track frame offsets: 
#        150
#        17913
#        35717
#        51412
#        69251
#        82849
#        98776
#        110394
#        127475
#        144213
#        158271
#        172817
#        188524
#        204618
#        221224
#        239576
#        254526
#        270390
#        289964
#        308008
#
# Disc length: 4330 seconds
#
# Revision: 4
# Processed by: cddbd v1.5.2PL0 Copyright (c) Steve Scherf et al.
# Submitted via: ExactAudioCopyFreeDBPlugin 1.0
#
DISCID=1e10e814
DTITLE=Gloria Trevi - Ellas cantan así
DYEAR=2003
DGENRE=Latin
TTITLE0=El recuento de los daños
TTITLE1=El último veso (Versión larga)
TTITLE2=Pelo suelto
TTITLE3=¡Qué bueno que no fui Lady Di!
TTITLE4=Agárrate
TTITLE5=Con los ojos cerrados
TTITLE6=Chica embarazada
TTITLE7=Ella que nunca fue ella
TTITLE8=Dr. Psiquiatra
TTITLE9=A la madre
TTITLE10=Siempre a mí
TTITLE11=Virgen de las vírgenes
TTITLE12=La papa sin catsup
TTITLE13=La pasabas bien conmigo
TTITLE14=Me siento tan sola
TTITLE15=Zapatos viejos
TTITLE16=Si me llevas contigo
TTITLE17=Hoy me iré de casa
TTITLE18=Tu ángel de la guarda
TTITLE19=No soy monedita de oro
EXTD=
EXTT0=
EXTT1=
EXTT2=
EXTT3=
EXTT4=
EXTT5=
EXTT6=
EXTT7=
EXTT8=
EXTT9=
EXTT10=
EXTT11=
EXTT12=
EXTT13=
EXTT14=
EXTT15=
EXTT16=
EXTT17=
EXTT18=
EXTT19=
PLAYORDER=
